<svg xmlns="http://www.w3.org/2000/svg" xmlns:xlink="http://www.w3.org/1999/xlink" version="1.1" class="marks" width="762" height="515" viewBox="0 0 762 515"><rect width="762" height="515" fill="white"/><g fill="none" stroke-miterlimit="4" transform="translate(51,28)"><g class="mark-group role-frame root" role="graphics-object" aria-roledescription="group mark container"><g transform="translate(0,0)"><path class="background" aria-hidden="true" d="M0.5,0.5h700v450h-700Z" stroke="#ddd"/><g><g class="mark-group role-axis" aria-hidden="true"><g transform="translate(0.5,450.5)"><path class="background" aria-hidden="true" d="M0,0h0v0h0Z" pointer-events="none"/><g><g class="mark-rule role-axis-grid" pointer-events="none"><line transform="translate(0,-450)" x2="0" y2="450" stroke="#ddd" stroke-width="1" opacity="1"/><line transform="translate(58,-450)" x2="0" y2="450" stroke="#ddd" stroke-width="1" opacity="1"/><line transform="translate(117,-450)" x2="0" y2="450" stroke="#ddd" stroke-width="1" opacity="1"/><line transform="translate(175,-450)" x2="0" y2="450" stroke="#ddd" stroke-width="1" opacity="1"/><line transform="translate(233,-450)" x2="0" y2="450" stroke="#ddd" stroke-width="1" opacity="1"/><line transform="translate(292,-450)" x2="0" y2="450" stroke="#ddd" stroke-width="1" opacity="1"/><line transform="translate(350,-450)" x2="0" y2="450" stroke="#ddd" stroke-width="1" opacity="1"/><line transform="translate(408,-450)" x2="0" y2="450" stroke="#ddd" stroke-width="1" opacity="1"/><line transform="translate(467,-450)" x2="0" y2="450" stroke="#ddd" stroke-width="1" opacity="1"/><line transform="translate(525,-450)" x2="0" y2="450" stroke="#ddd" stroke-width="1" opacity="1"/><line transform="translate(583,-450)" x2="0" y2="450" stroke="#ddd" stroke-width="1" opacity="1"/><line transform="translate(642,-450)" x2="0" y2="450" stroke="#ddd" stroke-width="1" opacity="1"/><line transform="translate(700,-450)" x2="0" y2="450" stroke="#ddd" stroke-width="1" opacity="1"/></g></g><path class="foreground" aria-hidden="true" d="" pointer-events="none" display="none"/></g></g><g class="mark-group role-axis" aria-hidden="true"><g transform="translate(0.5,0.5)"><path class="background" aria-hidden="true" d="M0,0h0v0h0Z" pointer-events="none"/><g><g class="mark-rule role-axis-grid" pointer-events="none"><line transform="translate(0,450)" x2="700" y2="0" stroke="#ddd" stroke-width="1" opacity="1"/><line transform="translate(0,405)" x2="700" y2="0" stroke="#ddd" stroke-width="1" opacity="1"/><line transform="translate(0,360)" x2="700" y2="0" stroke="#ddd" stroke-width="1" opacity="1"/><line transform="translate(0,315)" x2="700" y2="0" stroke="#ddd" stroke-width="1" opacity="1"/><line transform="translate(0,270)" x2="700" y2="0" stroke="#ddd" stroke-width="1" opacity="1"/><line transform="translate(0,225)" x2="700" y2="0" stroke="#ddd" stroke-width="1" opacity="1"/><line transform="translate(0,180)" x2="700" y2="0" stroke="#ddd" stroke-width="1" opacity="1"/><line transform="translate(0,135)" x2="700" y2="0" stroke="#ddd" stroke-width="1" opacity="1"/><line transform="translate(0,90)" x2="700" y2="0" stroke="#ddd" stroke-width="1" opacity="1"/><line transform="translate(0,45)" x2="700" y2="0" stroke="#ddd" stroke-width="1" opacity="1"/><line transform="translate(0,0)" x2="700" y2="0" stroke="#ddd" stroke-width="1" opacity="1"/></g></g><path class="foreground" aria-hidden="true" d="" pointer-events="none" display="none"/></g></g><g class="mark-group role-axis" role="graphics-symbol" aria-roledescription="axis" aria-label="X-axis titled 'x' for a linear scale with values from 0 to 6"><g transform="translate(0.5,450.5)"><path class="background" aria-hidden="true" d="M0,0h0v0h0Z" pointer-events="none"/><g><g class="mark-rule role-axis-tick" pointer-events="none"><line transform="translate(0,0)" x2="0" y2="5" stroke="#888" stroke-width="1" opacity="1"/><line transform="translate(58,0)" x2="0" y2="5" stroke="#888" stroke-width="1" opacity="1"/><line transform="translate(117,0)" x2="0" y2="5" stroke="#888" stroke-width="1" opacity="1"/><line transform="translate(175,0)" x2="0" y2="5" stroke="#888" stroke-width="1" opacity="1"/><line transform="translate(233,0)" x2="0" y2="5" stroke="#888" stroke-width="1" opacity="1"/><line transform="translate(292,0)" x2="0" y2="5" stroke="#888" stroke-width="1" opacity="1"/><line transform="translate(350,0)" x2="0" y2="5" stroke="#888" stroke-width="1" opacity="1"/><line transform="translate(408,0)" x2="0" y2="5" stroke="#888" stroke-width="1" opacity="1"/><line transform="translate(467,0)" x2="0" y2="5" stroke="#888" stroke-width="1" opacity="1"/><line transform="translate(525,0)" x2="0" y2="5" stroke="#888" stroke-width="1" opacity="1"/><line transform="translate(583,0)" x2="0" y2="5" stroke="#888" stroke-width="1" opacity="1"/><line transform="translate(642,0)" x2="0" y2="5" stroke="#888" stroke-width="1" opacity="1"/><line transform="translate(700,0)" x2="0" y2="5" stroke="#888" stroke-width="1" opacity="1"/></g><g class="mark-text role-axis-label" pointer-events="none"><text text-anchor="start" transform="translate(0,15)" font-family="sans-serif" font-size="10px" fill="#000" opacity="1">0.0</text><text text-anchor="middle" transform="translate(58.33333333333333,15)" font-family="sans-serif" font-size="10px" fill="#000" opacity="1">0.5</text><text text-anchor="middle" transform="translate(116.66666666666666,15)" font-family="sans-serif" font-size="10px" fill="#000" opacity="1">1.0</text><text text-anchor="middle" transform="translate(175,15)" font-family="sans-serif" font-size="10px" fill="#000" opacity="1">1.5</text><text text-anchor="middle" transform="translate(233.33333333333331,15)" font-family="sans-serif" font-size="10px" fill="#000" opacity="1">2.0</text><text text-anchor="middle" transform="translate(291.6666666666667,15)" font-family="sans-serif" font-size="10px" fill="#000" opacity="1">2.5</text><text text-anchor="middle" transform="translate(350,15)" font-family="sans-serif" font-size="10px" fill="#000" opacity="1">3.0</text><text text-anchor="middle" transform="translate(408.33333333333337,15)" font-family="sans-serif" font-size="10px" fill="#000" opacity="1">3.5</text><text text-anchor="middle" transform="translate(466.66666666666663,15)" font-family="sans-serif" font-size="10px" fill="#000" opacity="1">4.0</text><text text-anchor="middle" transform="translate(525,15)" font-family="sans-serif" font-size="10px" fill="#000" opacity="1">4.5</text><text text-anchor="middle" transform="translate(583.3333333333334,15)" font-family="sans-serif" font-size="10px" fill="#000" opacity="1">5.0</text><text text-anchor="middle" transform="translate(641.6666666666666,15)" font-family="sans-serif" font-size="10px" fill="#000" opacity="1">5.5</text><text text-anchor="end" transform="translate(700,15)" font-family="sans-serif" font-size="10px" fill="#000" opacity="1">6.0</text></g><g class="mark-rule role-axis-domain" pointer-events="none"><line transform="translate(0,0)" x2="700" y2="0" stroke="#888" stroke-width="1" opacity="1"/></g><g class="mark-text role-axis-title" pointer-events="none"><text text-anchor="middle" transform="translate(350,30)" font-family="sans-serif" font-size="11px" font-weight="bold" fill="#000" opacity="1">x</text></g></g><path class="foreground" aria-hidden="true" d="" pointer-events="none" display="none"/></g></g><g class="mark-group role-axis" role="graphics-symbol" aria-roledescription="axis" aria-label="Y-axis titled 'y' for a linear scale with values from 0.0 to 1.0"><g transform="translate(0.5,0.5)"><path class="background" aria-hidden="true" d="M0,0h0v0h0Z" pointer-events="none"/><g><g class="mark-rule role-axis-tick" pointer-events="none"><line transform="translate(0,450)" x2="-5" y2="0" stroke="#888" stroke-width="1" opacity="1"/><line transform="translate(0,405)" x2="-5" y2="0" stroke="#888" stroke-width="1" opacity="1"/><line transform="translate(0,360)" x2="-5" y2="0" stroke="#888" stroke-width="1" opacity="1"/><line transform="translate(0,315)" x2="-5" y2="0" stroke="#888" stroke-width="1" opacity="1"/><line transform="translate(0,270)" x2="-5" y2="0" stroke="#888" stroke-width="1" opacity="1"/><line transform="translate(0,225)" x2="-5" y2="0" stroke="#888" stroke-width="1" opacity="1"/><line transform="translate(0,180)" x2="-5" y2="0" stroke="#888" stroke-width="1" opacity="1"/><line transform="translate(0,135)" x2="-5" y2="0" stroke="#888" stroke-width="1" opacity="1"/><line transform="translate(0,90)" x2="-5" y2="0" stroke="#888" stroke-width="1" opacity="1"/><line transform="translate(0,45)" x2="-5" y2="0" stroke="#888" stroke-width="1" opacity="1"/><line transform="translate(0,0)" x2="-5" y2="0" stroke="#888" stroke-width="1" opacity="1"/></g><g class="mark-text role-axis-label" pointer-events="none"><text text-anchor="end" transform="translate(-7,453)" font-family="sans-serif" font-size="10px" fill="#000" opacity="1">0.0</text><text text-anchor="end" transform="translate(-7,408)" font-family="sans-serif" font-size="10px" fill="#000" opacity="1">0.1</text><text text-anchor="end" transform="translate(-7,363)" font-family="sans-serif" font-size="10px" fill="#000" opacity="1">0.2</text><text text-anchor="end" transform="translate(-7,318)" font-family="sans-serif" font-size="10px" fill="#000" opacity="1">0.3</text><text text-anchor="end" transform="translate(-7,273)" font-family="sans-serif" font-size="10px" fill="#000" opacity="1">0.4</text><text text-anchor="end" transform="translate(-7,228)" font-family="sans-serif" font-size="10px" fill="#000" opacity="1">0.5</text><text text-anchor="end" transform="translate(-7,183)" font-family="sans-serif" font-size="10px" fill="#000" opacity="1">0.6</text><text text-anchor="end" transform="translate(-7,138.00000000000003)" font-family="sans-serif" font-size="10px" fill="#000" opacity="1">0.7</text><text text-anchor="end" transform="translate(-7,92.99999999999999)" font-family="sans-serif" font-size="10px" fill="#000" opacity="1">0.8</text><text text-anchor="end" transform="translate(-7,47.99999999999999)" font-family="sans-serif" font-size="10px" fill="#000" opacity="1">0.9</text><text text-anchor="end" transform="translate(-7,3)" font-family="sans-serif" font-size="10px" fill="#000" opacity="1">1.0</text></g><g class="mark-rule role-axis-domain" pointer-events="none"><line transform="translate(0,450)" x2="0" y2="-450" stroke="#888" stroke-width="1" opacity="1"/></g><g class="mark-text role-axis-title" pointer-events="none"><text text-anchor="middle" transform="translate(-35,225) rotate(-90) translate(0,-2)" font-family="sans-serif" font-size="11px" font-weight="bold" fill="#000" opacity="1">y</text></g></g><path class="foreground" aria-hidden="true" d="" pointer-events="none" display="none"/></g></g><g class="mark-line role-mark layer_0_marks" role="graphics-object" aria-roledescription="line mark container"><path aria-label="x: 0; y: 1" role="graphics-symbol" aria-roledescription="line mark" d="M0,0L11.667,42.823L23.333,81.571L35,116.632L46.667,148.356L58.333,177.061L70,203.035L81.667,226.537L93.333,247.802L105,267.044L116.667,284.454L128.333,300.208L140,314.463L151.667,327.361L163.333,339.031L175,349.591L186.667,359.147L198.333,367.792L210,375.616L221.667,382.694L233.333,389.099L245,394.895L256.667,400.139L268.333,404.884L280,409.177L291.667,413.062L303.333,416.577L315,419.758L326.667,422.635L338.333,425.24L350,427.596L361.667,429.728L373.333,431.657L385,433.403L396.667,434.982L408.333,436.411L420,437.704L431.667,438.874L443.333,439.933L455,440.891L466.667,441.758L478.333,442.542L490,443.252L501.667,443.894L513.333,444.475L525,445.001L536.667,445.477L548.333,445.907L560,446.297L571.667,446.649L583.333,446.968L595,447.256L606.667,447.518L618.333,447.754L630,447.968L641.667,448.161L653.333,448.336L665,448.494L676.667,448.638L688.333,448.767L700,448.885" stroke="hotpink" stroke-width="3"/></g><g class="mark-symbol role-mark layer_1_marks" role="graphics-object" aria-roledescription="symbol mark container"><path aria-label="x: 0; y: 1" role="graphics-symbol" aria-roledescription="point" transform="translate(0,0)" d="M2.739,0A2.739,2.739,0,1,1,-2.739,0A2.739,2.739,0,1,1,2.739,0" fill="hotpink" stroke-width="2" opacity="1"/><path aria-label="x: 0.1; y: 0.904837418036" role="graphics-symbol" aria-roledescription="point" transform="translate(11.666666666666666,42.823161883818216)" d="M2.739,0A2.739,2.739,0,1,1,-2.739,0A2.739,2.739,0,1,1,2.739,0" fill="hotpink" stroke-width="2" opacity="1"/><path aria-label="x: 0.2; y: 0.818730753078" role="graphics-symbol" aria-roledescription="point" transform="translate(23.333333333333332,81.57116111490818)" d="M2.739,0A2.739,2.739,0,1,1,-2.739,0A2.739,2.739,0,1,1,2.739,0" fill="hotpink" stroke-width="2" opacity="1"/><path aria-label="x: 0.3; y: 0.740818220682" role="graphics-symbol" aria-roledescription="point" transform="translate(35,116.63180069322695)" d="M2.739,0A2.739,2.739,0,1,1,-2.739,0A2.739,2.739,0,1,1,2.739,0" fill="hotpink" stroke-width="2" opacity="1"/><path aria-label="x: 0.4; y: 0.670320046036" role="graphics-symbol" aria-roledescription="point" transform="translate(46.666666666666664,148.3559792839623)" d="M2.739,0A2.739,2.739,0,1,1,-2.739,0A2.739,2.739,0,1,1,2.739,0" fill="hotpink" stroke-width="2" opacity="1"/><path aria-label="x: 0.5; y: 0.606530659713" role="graphics-symbol" aria-roledescription="point" transform="translate(58.33333333333333,177.06120312931495)" d="M2.739,0A2.739,2.739,0,1,1,-2.739,0A2.739,2.739,0,1,1,2.739,0" fill="hotpink" stroke-width="2" opacity="1"/><path aria-label="x: 0.6; y: 0.548811636094" role="graphics-symbol" aria-roledescription="point" transform="translate(70,203.03476375768807)" d="M2.739,0A2.739,2.739,0,1,1,-2.739,0A2.739,2.739,0,1,1,2.739,0" fill="hotpink" stroke-width="2" opacity="1"/><path aria-label="x: 0.7; y: 0.496585303791" role="graphics-symbol" aria-roledescription="point" transform="translate(81.66666666666666,226.5366132938657)" d="M2.739,0A2.739,2.739,0,1,1,-2.739,0A2.739,2.739,0,1,1,2.739,0" fill="hotpink" stroke-width="2" opacity="1"/><path aria-label="x: 0.8; y: 0.449328964117" role="graphics-symbol" aria-roledescription="point" transform="translate(93.33333333333333,247.80196614725028)" d="M2.739,0A2.739,2.739,0,1,1,-2.739,0A2.739,2.739,0,1,1,2.739,0" fill="hotpink" stroke-width="2" opacity="1"/><path aria-label="x: 0.9; y: 0.406569659741" role="graphics-symbol" aria-roledescription="point" transform="translate(105,267.0436531167304)" d="M2.739,0A2.739,2.739,0,1,1,-2.739,0A2.739,2.739,0,1,1,2.739,0" fill="hotpink" stroke-width="2" opacity="1"/><path aria-label="x: 1; y: 0.367879441171" role="graphics-symbol" aria-roledescription="point" transform="translate(116.66666666666666,284.45425147285096)" d="M2.739,0A2.739,2.739,0,1,1,-2.739,0A2.739,2.739,0,1,1,2.739,0" fill="hotpink" stroke-width="2" opacity="1"/><path aria-label="x: 1.1; y: 0.332871083698" role="graphics-symbol" aria-roledescription="point" transform="translate(128.33333333333334,300.2080123358642)" d="M2.739,0A2.739,2.739,0,1,1,-2.739,0A2.739,2.739,0,1,1,2.739,0" fill="hotpink" stroke-width="2" opacity="1"/><path aria-label="x: 1.2; y: 0.301194211912" role="graphics-symbol" aria-roledescription="point" transform="translate(140,314.46260463950904)" d="M2.739,0A2.739,2.739,0,1,1,-2.739,0A2.739,2.739,0,1,1,2.739,0" fill="hotpink" stroke-width="2" opacity="1"/><path aria-label="x: 1.3; y: 0.272531793034" role="graphics-symbol" aria-roledescription="point" transform="translate(151.66666666666669,327.3606931346944)" d="M2.739,0A2.739,2.739,0,1,1,-2.739,0A2.739,2.739,0,1,1,2.739,0" fill="hotpink" stroke-width="2" opacity="1"/><path aria-label="x: 1.4; y: 0.246596963942" role="graphics-symbol" aria-roledescription="point" transform="translate(163.33333333333331,339.0313662262771)" d="M2.739,0A2.739,2.739,0,1,1,-2.739,0A2.739,2.739,0,1,1,2.739,0" fill="hotpink" stroke-width="2" opacity="1"/><path aria-label="x: 1.5; y: 0.223130160148" role="graphics-symbol" aria-roledescription="point" transform="translate(175,349.5914279332066)" d="M2.739,0A2.739,2.739,0,1,1,-2.739,0A2.739,2.739,0,1,1,2.739,0" fill="hotpink" stroke-width="2" opacity="1"/><path aria-label="x: 1.6; y: 0.201896517995" role="graphics-symbol" aria-roledescription="point" transform="translate(186.66666666666666,359.1465669024051)" d="M2.739,0A2.739,2.739,0,1,1,-2.739,0A2.739,2.739,0,1,1,2.739,0" fill="hotpink" stroke-width="2" opacity="1"/><path aria-label="x: 1.7; y: 0.182683524053" role="graphics-symbol" aria-roledescription="point" transform="translate(198.33333333333331,367.7924141762694)" d="M2.739,0A2.739,2.739,0,1,1,-2.739,0A2.739,2.739,0,1,1,2.739,0" fill="hotpink" stroke-width="2" opacity="1"/><path aria-label="x: 1.8; y: 0.165298888222" role="graphics-symbol" aria-roledescription="point" transform="translate(210,375.61550030028604)" d="M2.739,0A2.739,2.739,0,1,1,-2.739,0A2.739,2.739,0,1,1,2.739,0" fill="hotpink" stroke-width="2" opacity="1"/><path aria-label="x: 1.9; y: 0.149568619223" role="graphics-symbol" aria-roledescription="point" transform="translate(221.66666666666666,382.6941213498142)" d="M2.739,0A2.739,2.739,0,1,1,-2.739,0A2.739,2.739,0,1,1,2.739,0" fill="hotpink" stroke-width="2" opacity="1"/><path aria-label="x: 2; y: 0.135335283237" role="graphics-symbol" aria-roledescription="point" transform="translate(233.33333333333331,389.0991225435243)" d="M2.739,0A2.739,2.739,0,1,1,-2.739,0A2.739,2.739,0,1,1,2.739,0" fill="hotpink" stroke-width="2" opacity="1"/><path aria-label="x: 2.1; y: 0.122456428253" role="graphics-symbol" aria-roledescription="point" transform="translate(245.00000000000003,394.89460728615813)" d="M2.739,0A2.739,2.739,0,1,1,-2.739,0A2.739,2.739,0,1,1,2.739,0" fill="hotpink" stroke-width="2" opacity="1"/><path aria-label="x: 2.2; y: 0.110803158362" role="graphics-symbol" aria-roledescription="point" transform="translate(256.6666666666667,400.13857873694974)" d="M2.739,0A2.739,2.739,0,1,1,-2.739,0A2.739,2.739,0,1,1,2.739,0" fill="hotpink" stroke-width="2" opacity="1"/><path aria-label="x: 2.3; y: 0.100258843723" role="graphics-symbol" aria-roledescription="point" transform="translate(268.3333333333333,404.8835203247383)" d="M2.739,0A2.739,2.739,0,1,1,-2.739,0A2.739,2.739,0,1,1,2.739,0" fill="hotpink" stroke-width="2" opacity="1"/><path aria-label="x: 2.4; y: 0.0907179532894" role="graphics-symbol" aria-roledescription="point" transform="translate(280,409.1769210197644)" d="M2.739,0A2.739,2.739,0,1,1,-2.739,0A2.739,2.739,0,1,1,2.739,0" fill="hotpink" stroke-width="2" opacity="1"/><path aria-label="x: 2.5; y: 0.0820849986239" role="graphics-symbol" aria-roledescription="point" transform="translate(291.6666666666667,413.0617506192455)" d="M2.739,0A2.739,2.739,0,1,1,-2.739,0A2.739,2.739,0,1,1,2.739,0" fill="hotpink" stroke-width="2" opacity="1"/><path aria-label="x: 2.6; y: 0.0742735782143" role="graphics-symbol" aria-roledescription="point" transform="translate(303.33333333333337,416.57688980354976)" d="M2.739,0A2.739,2.739,0,1,1,-2.739,0A2.739,2.739,0,1,1,2.739,0" fill="hotpink" stroke-width="2" opacity="1"/><path aria-label="x: 2.7; y: 0.0672055127397" role="graphics-symbol" aria-roledescription="point" transform="translate(315,419.7575192671126)" d="M2.739,0A2.739,2.739,0,1,1,-2.739,0A2.739,2.739,0,1,1,2.739,0" fill="hotpink" stroke-width="2" opacity="1"/><path aria-label="x: 2.8; y: 0.0608100626252" role="graphics-symbol" aria-roledescription="point" transform="translate(326.66666666666663,422.6354718186519)" d="M2.739,0A2.739,2.739,0,1,1,-2.739,0A2.739,2.739,0,1,1,2.739,0" fill="hotpink" stroke-width="2" opacity="1"/><path aria-label="x: 2.9; y: 0.0550232200564" role="graphics-symbol" aria-roledescription="point" transform="translate(338.3333333333333,425.23955097461675)" d="M2.739,0A2.739,2.739,0,1,1,-2.739,0A2.739,2.739,0,1,1,2.739,0" fill="hotpink" stroke-width="2" opacity="1"/><path aria-label="x: 3; y: 0.0497870683679" role="graphics-symbol" aria-roledescription="point" transform="translate(350,427.5958192344612)" d="M2.739,0A2.739,2.739,0,1,1,-2.739,0A2.739,2.739,0,1,1,2.739,0" fill="hotpink" stroke-width="2" opacity="1"/><path aria-label="x: 3.1; y: 0.0450492023936" role="graphics-symbol" aria-roledescription="point" transform="translate(361.6666666666667,429.727858922899)" d="M2.739,0A2.739,2.739,0,1,1,-2.739,0A2.739,2.739,0,1,1,2.739,0" fill="hotpink" stroke-width="2" opacity="1"/><path aria-label="x: 3.2; y: 0.0407622039784" role="graphics-symbol" aria-roledescription="point" transform="translate(373.3333333333333,431.65700820973524)" d="M2.739,0A2.739,2.739,0,1,1,-2.739,0A2.739,2.739,0,1,1,2.739,0" fill="hotpink" stroke-width="2" opacity="1"/><path aria-label="x: 3.3; y: 0.0368831674012" role="graphics-symbol" aria-roledescription="point" transform="translate(384.99999999999994,433.402574669442)" d="M2.739,0A2.739,2.739,0,1,1,-2.739,0A2.739,2.739,0,1,1,2.739,0" fill="hotpink" stroke-width="2" opacity="1"/><path aria-label="x: 3.4; y: 0.0333732699603" role="graphics-symbol" aria-roledescription="point" transform="translate(396.66666666666663,434.9820285178533)" d="M2.739,0A2.739,2.739,0,1,1,-2.739,0A2.739,2.739,0,1,1,2.739,0" fill="hotpink" stroke-width="2" opacity="1"/><path aria-label="x: 3.5; y: 0.0301973834223" role="graphics-symbol" aria-roledescription="point" transform="translate(408.33333333333337,436.41117745995666)" d="M2.739,0A2.739,2.739,0,1,1,-2.739,0A2.739,2.739,0,1,1,2.739,0" fill="hotpink" stroke-width="2" opacity="1"/><path aria-label="x: 3.6; y: 0.0273237224473" role="graphics-symbol" aria-roledescription="point" transform="translate(420,437.70432489871837)" d="M2.739,0A2.739,2.739,0,1,1,-2.739,0A2.739,2.739,0,1,1,2.739,0" fill="hotpink" stroke-width="2" opacity="1"/><path aria-label="x: 3.7; y: 0.0247235264703" role="graphics-symbol" aria-roledescription="point" transform="translate(431.6666666666667,438.8744130883473)" d="M2.739,0A2.739,2.739,0,1,1,-2.739,0A2.739,2.739,0,1,1,2.739,0" fill="hotpink" stroke-width="2" opacity="1"/><path aria-label="x: 3.8; y: 0.0223707718562" role="graphics-symbol" aria-roledescription="point" transform="translate(443.3333333333333,439.93315266472547)" d="M2.739,0A2.739,2.739,0,1,1,-2.739,0A2.739,2.739,0,1,1,2.739,0" fill="hotpink" stroke-width="2" opacity="1"/><path aria-label="x: 3.9; y: 0.0202419114458" role="graphics-symbol" aria-roledescription="point" transform="translate(455,440.891139849388)" d="M2.739,0A2.739,2.739,0,1,1,-2.739,0A2.739,2.739,0,1,1,2.739,0" fill="hotpink" stroke-width="2" opacity="1"/><path aria-label="x: 4; y: 0.0183156388887" role="graphics-symbol" aria-roledescription="point" transform="translate(466.66666666666663,441.7579625000696)" d="M2.739,0A2.739,2.739,0,1,1,-2.739,0A2.739,2.739,0,1,1,2.739,0" fill="hotpink" stroke-width="2" opacity="1"/><path aria-label="x: 4.1; y: 0.0165726754018" role="graphics-symbol" aria-roledescription="point" transform="translate(478.33333333333326,442.54229606920745)" d="M2.739,0A2.739,2.739,0,1,1,-2.739,0A2.739,2.739,0,1,1,2.739,0" fill="hotpink" stroke-width="2" opacity="1"/><path aria-label="x: 4.2; y: 0.0149955768205" role="graphics-symbol" aria-roledescription="point" transform="translate(490.00000000000006,443.25199043078504)" d="M2.739,0A2.739,2.739,0,1,1,-2.739,0A2.739,2.739,0,1,1,2.739,0" fill="hotpink" stroke-width="2" opacity="1"/><path aria-label="x: 4.3; y: 0.0135685590122" role="graphics-symbol" aria-roledescription="point" transform="translate(501.6666666666667,443.8941484445096)" d="M2.739,0A2.739,2.739,0,1,1,-2.739,0A2.739,2.739,0,1,1,2.739,0" fill="hotpink" stroke-width="2" opacity="1"/><path aria-label="x: 4.4; y: 0.0122773399031" role="graphics-symbol" aria-roledescription="point" transform="translate(513.3333333333334,444.4751970436192)" d="M2.739,0A2.739,2.739,0,1,1,-2.739,0A2.739,2.739,0,1,1,2.739,0" fill="hotpink" stroke-width="2" opacity="1"/><path aria-label="x: 4.5; y: 0.0111089965382" role="graphics-symbol" aria-roledescription="point" transform="translate(525,445.000951557791)" d="M2.739,0A2.739,2.739,0,1,1,-2.739,0A2.739,2.739,0,1,1,2.739,0" fill="hotpink" stroke-width="2" opacity="1"/><path aria-label="x: 4.6; y: 0.0100518357446" role="graphics-symbol" aria-roledescription="point" transform="translate(536.6666666666666,445.4766739149149)" d="M2.739,0A2.739,2.739,0,1,1,-2.739,0A2.739,2.739,0,1,1,2.739,0" fill="hotpink" stroke-width="2" opacity="1"/><path aria-label="x: 4.7; y: 0.0090952771017" role="graphics-symbol" aria-roledescription="point" transform="translate(548.3333333333334,445.9071253042369)" d="M2.739,0A2.739,2.739,0,1,1,-2.739,0A2.739,2.739,0,1,1,2.739,0" fill="hotpink" stroke-width="2" opacity="1"/><path aria-label="x: 4.8; y: 0.00822974704902" role="graphics-symbol" aria-roledescription="point" transform="translate(560,446.296613827941)" d="M2.739,0A2.739,2.739,0,1,1,-2.739,0A2.739,2.739,0,1,1,2.739,0" fill="hotpink" stroke-width="2" opacity="1"/><path aria-label="x: 4.9; y: 0.00744658307092" role="graphics-symbol" aria-roledescription="point" transform="translate(571.6666666666667,446.64903761808404)" d="M2.739,0A2.739,2.739,0,1,1,-2.739,0A2.739,2.739,0,1,1,2.739,0" fill="hotpink" stroke-width="2" opacity="1"/><path aria-label="x: 5; y: 0.00673794699909" role="graphics-symbol" aria-roledescription="point" transform="translate(583.3333333333334,446.9679238504115)" d="M2.739,0A2.739,2.739,0,1,1,-2.739,0A2.739,2.739,0,1,1,2.739,0" fill="hotpink" stroke-width="2" opacity="1"/><path aria-label="x: 5.1; y: 0.00609674656552" role="graphics-symbol" aria-roledescription="point" transform="translate(595,447.256464045518)" d="M2.739,0A2.739,2.739,0,1,1,-2.739,0A2.739,2.739,0,1,1,2.739,0" fill="hotpink" stroke-width="2" opacity="1"/><path aria-label="x: 5.2; y: 0.00551656442076" role="graphics-symbol" aria-roledescription="point" transform="translate(606.6666666666667,447.51754601065767)" d="M2.739,0A2.739,2.739,0,1,1,-2.739,0A2.739,2.739,0,1,1,2.739,0" fill="hotpink" stroke-width="2" opacity="1"/><path aria-label="x: 5.3; y: 0.00499159390691" role="graphics-symbol" aria-roledescription="point" transform="translate(618.3333333333333,447.7537827418904)" d="M2.739,0A2.739,2.739,0,1,1,-2.739,0A2.739,2.739,0,1,1,2.739,0" fill="hotpink" stroke-width="2" opacity="1"/><path aria-label="x: 5.4; y: 0.00451658094261" role="graphics-symbol" aria-roledescription="point" transform="translate(630,447.96753857582434)" d="M2.739,0A2.739,2.739,0,1,1,-2.739,0A2.739,2.739,0,1,1,2.739,0" fill="hotpink" stroke-width="2" opacity="1"/><path aria-label="x: 5.5; y: 0.00408677143846" role="graphics-symbol" aria-roledescription="point" transform="translate(641.6666666666666,448.1609528526912)" d="M2.739,0A2.739,2.739,0,1,1,-2.739,0A2.739,2.739,0,1,1,2.739,0" fill="hotpink" stroke-width="2" opacity="1"/><path aria-label="x: 5.6; y: 0.00369786371648" role="graphics-symbol" aria-roledescription="point" transform="translate(653.3333333333333,448.33596132758265)" d="M2.739,0A2.739,2.739,0,1,1,-2.739,0A2.739,2.739,0,1,1,2.739,0" fill="hotpink" stroke-width="2" opacity="1"/><path aria-label="x: 5.7; y: 0.00334596545747" role="graphics-symbol" aria-roledescription="point" transform="translate(665,448.4943155441379)" d="M2.739,0A2.739,2.739,0,1,1,-2.739,0A2.739,2.739,0,1,1,2.739,0" fill="hotpink" stroke-width="2" opacity="1"/><path aria-label="x: 5.8; y: 0.00302755474538" role="graphics-symbol" aria-roledescription="point" transform="translate(676.6666666666666,448.63760036458086)" d="M2.739,0A2.739,2.739,0,1,1,-2.739,0A2.739,2.739,0,1,1,2.739,0" fill="hotpink" stroke-width="2" opacity="1"/><path aria-label="x: 5.9; y: 0.00273944481877" role="graphics-symbol" aria-roledescription="point" transform="translate(688.3333333333334,448.76724983155424)" d="M2.739,0A2.739,2.739,0,1,1,-2.739,0A2.739,2.739,0,1,1,2.739,0" fill="hotpink" stroke-width="2" opacity="1"/><path aria-label="x: 6; y: 0.00247875217667" role="graphics-symbol" aria-roledescription="point" transform="translate(700,448.88456152050014)" d="M2.739,0A2.739,2.739,0,1,1,-2.739,0A2.739,2.739,0,1,1,2.739,0" fill="hotpink" stroke-width="2" opacity="1"/></g><g class="mark-group role-title"><g transform="translate(350,-23)"><path class="background" aria-hidden="true" d="M0,0h0v0h0Z" pointer-events="none"/><g><g class="mark-text role-title-text" role="graphics-symbol" aria-roledescription="title" aria-label="Title text 'Exponential Decay: y = e^(-x)'" pointer-events="none"><text text-anchor="middle" transform="translate(0,10)" font-family="sans-serif" font-size="13px" font-weight="bold" fill="#000" opacity="1">Exponential Decay: y = e^(-x)</text></g></g><path class="foreground" aria-hidden="true" d="" pointer-events="none" display="none"/></g></g></g><path class="foreground" aria-hidden="true" d="" display="none"/></g></g></g></svg>